<svg xmlns="http://www.w3.org/2000/svg" width="18.75" height="18.75" viewBox="0 0 18.75 18.75">
  <path id="Icon_material-library-add" data-name="Icon material-library-add" d="M4.875,6.75H3V19.875A1.881,1.881,0,0,0,4.875,21.75H18V19.875H4.875Zm15-3.75H8.625A1.881,1.881,0,0,0,6.75,4.875v11.25A1.881,1.881,0,0,0,8.625,18h11.25a1.881,1.881,0,0,0,1.875-1.875V4.875A1.881,1.881,0,0,0,19.875,3Zm-.937,8.438h-3.75v3.75H13.313v-3.75H9.563V9.563h3.75V5.813h1.875v3.75h3.75Z" transform="translate(-3 -3)" fill="#fff"/>
</svg>
