<svg xmlns="http://www.w3.org/2000/svg" width="15.035" height="19.545" viewBox="0 0 15.035 19.545">
  <path id="Icon_ionic-md-calculator" data-name="Icon ionic-md-calculator" d="M19.529,3.375H9.005A2.256,2.256,0,0,0,6.75,5.63V20.665A2.256,2.256,0,0,0,9.005,22.92H19.529a2.262,2.262,0,0,0,2.255-2.255V5.63A2.256,2.256,0,0,0,19.529,3.375Zm-7.893,17.29H9.381V18.41h2.255Zm0-4.135H9.381V14.275h2.255Zm0-4.135H9.381V10.141h2.255Zm3.759,8.269H13.14V18.41h2.255Zm0-4.135H13.14V14.275h2.255Zm0-4.135H13.14V10.141h2.255Zm3.759,8.269H16.9v-6.39h2.255Zm0-8.269H16.9V10.141h2.255Zm0-4.51H9.381V5.63h9.772Z" transform="translate(-6.75 -3.375)" fill="#fff"/>
</svg>
