<svg xmlns="http://www.w3.org/2000/svg" width="1373.184" height="138.015" viewBox="0 0 1373.184 138.015">
  <path id="Path_321" data-name="Path 321" d="M66.86-25.463q-16.048,0-24.852,12.059t-8.8,33.61q0,44.844,33.656,44.844,14.122,0,34.206-7.061V81.831Q84.559,88.709,64.2,88.709q-29.254,0-44.752-17.745T3.951,20.022q0-20.909,7.611-36.636A55.012,55.012,0,0,1,33.434-40.732q14.26-8.391,33.426-8.391,19.533,0,39.25,9.446l-9.17,23.11A151.8,151.8,0,0,0,81.808-22.8,45.14,45.14,0,0,0,66.86-25.463ZM251.278,19.655q0,33.289-16.507,51.171t-47.32,17.882q-30.813,0-47.32-17.882T123.626,19.472q0-33.472,16.553-51.125t47.457-17.653q30.9,0,47.274,17.791T251.278,19.655Zm-97.849,0q0,22.468,8.529,33.839t25.494,11.371q34.022,0,34.022-45.21,0-45.3-33.839-45.3-16.965,0-25.586,11.417T153.43,19.655Zm182.4,67.219L303.55-18.311h-.825q1.742,32.1,1.742,42.826V86.875h-25.4V-47.2h38.7l31.73,102.526h.55L383.7-47.2h38.7V86.875H395.9V23.415q0-4.494.138-10.363t1.238-31.18h-.825l-34.573,105Zm120.316,0V-47.2h28.428V86.875Zm181.116,0H601.131L542.807-14.551h-.825q1.742,26.869,1.742,38.332V86.875h-25.4V-47.2h35.857L612.411,53.219h.642q-1.376-26.136-1.376-36.957V-47.2h25.586Zm84.643-75.289h53.189V81.1a149.954,149.954,0,0,1-24.348,5.915,158.591,158.591,0,0,1-23.339,1.7q-30.354,0-46.357-17.837t-16-51.217q0-32.463,18.57-50.621t51.492-18.157a99.63,99.63,0,0,1,39.8,8.253l-9.446,22.743a67.461,67.461,0,0,0-30.538-7.336q-18.433,0-29.529,12.38T694.3,20.205q0,21.826,8.941,33.335t26,11.509a91.961,91.961,0,0,0,18.066-1.834V35.245h-25.4Zm213.03,38.057q0,18.157-13.068,28.612T885.507,88.709q-21.459,0-37.966-8.07V54.228a156.453,156.453,0,0,0,22.972,8.529,67.976,67.976,0,0,0,17.195,2.476q9.354,0,14.352-3.576t5-10.638a11.743,11.743,0,0,0-2.2-7.015,24.629,24.629,0,0,0-6.465-5.915q-4.264-2.843-17.378-9.079-12.288-5.777-18.433-11.1a41.655,41.655,0,0,1-9.812-12.38A35.329,35.329,0,0,1,849.1-10.974q0-17.791,12.059-27.97t33.335-10.179a78.717,78.717,0,0,1,19.946,2.476,137.1,137.1,0,0,1,19.854,6.97l-9.17,22.1a134.172,134.172,0,0,0-17.745-6.144,57.117,57.117,0,0,0-13.8-1.742q-8.07,0-12.38,3.76a12.4,12.4,0,0,0-4.31,9.812,12.144,12.144,0,0,0,1.742,6.557A19.157,19.157,0,0,0,884.177.076q3.806,2.614,18.02,9.4Q921,18.463,927.966,27.5T934.935,49.643Zm145.994-29.987q0,33.289-16.507,51.171T1017.1,88.709q-30.813,0-47.32-17.882T953.276,19.472q0-33.472,16.553-51.125t47.457-17.653q30.9,0,47.274,17.791T1080.929,19.655Zm-97.849,0q0,22.468,8.529,33.839T1017.1,64.865q34.022,0,34.022-45.21,0-45.3-33.839-45.3-16.965,0-25.586,11.417T983.08,19.655Zm247.327,0q0,33.289-16.507,51.171t-47.319,17.882q-30.813,0-47.32-17.882t-16.507-51.355q0-33.472,16.553-51.125t47.457-17.653q30.9,0,47.274,17.791T1230.407,19.655Zm-97.849,0q0,22.468,8.529,33.839t25.494,11.371q34.022,0,34.022-45.21,0-45.3-33.839-45.3-16.965,0-25.586,11.417T1132.559,19.655Zm244.576,67.219H1341L1282.679-14.551h-.825q1.742,26.869,1.742,38.332V86.875h-25.4V-47.2h35.856l58.232,100.416h.642q-1.375-26.136-1.375-36.957V-47.2h25.586Z" transform="translate(-3.951 49.307)" fill="#b96a00" opacity="0.05"/>
</svg>
