<svg xmlns="http://www.w3.org/2000/svg" width="19.106" height="20.168" viewBox="0 0 19.106 20.168">
  <path id="Icon_material-location-city" data-name="Icon material-location-city" d="M17.238,12.553V6.184L14.053,3,10.869,6.184V8.307H4.5v14.86H23.606V12.553ZM8.746,21.045H6.623V18.922H8.746Zm0-4.246H6.623V14.676H8.746Zm0-4.246H6.623V10.43H8.746Zm6.369,8.492H12.992V18.922h2.123Zm0-4.246H12.992V14.676h2.123Zm0-4.246H12.992V10.43h2.123Zm0-4.246H12.992V6.184h2.123Zm6.369,12.738H19.36V18.922h2.123Zm0-4.246H19.36V14.676h2.123Z" transform="translate(-4.5 -3)" fill="#fff"/>
</svg>
