<svg xmlns="http://www.w3.org/2000/svg" width="20.241" height="18.795" viewBox="0 0 20.241 18.795">
  <g id="Icon_ionic-md-pricetags" data-name="Icon ionic-md-pricetags" transform="translate(20.241 18.795) rotate(180)">
    <path id="Path_318" data-name="Path 318" d="M9.614,16.129V9.759L0,.556A2.059,2.059,0,0,1,1.3,0,2.251,2.251,0,0,1,2.72.556l8.611,8.119v5.783Z" transform="translate(8.91 0)" fill="#fff"/>
    <path id="Path_319" data-name="Path 319" d="M15.9,17.349H8.675L.556,8.873A1.849,1.849,0,0,1,0,7.59,1.976,1.976,0,0,1,.556,6.149L6.15.565A2.074,2.074,0,0,1,7.451,0,2.255,2.255,0,0,1,8.865.565l8.485,8.11V15.9Zm-1.387-4.64a1.447,1.447,0,1,0,.967.967A1.407,1.407,0,0,0,14.517,12.709Z" transform="translate(0 1.446)" fill="#fff"/>
  </g>
</svg>
