<svg xmlns="http://www.w3.org/2000/svg" xmlns:xlink="http://www.w3.org/1999/xlink" width="521.777" height="384.397" viewBox="0 0 521.777 384.397">
  <defs>
    <linearGradient id="linear-gradient" x1="0.5" x2="0.5" y2="1" gradientUnits="objectBoundingBox">
      <stop offset="0" stopColor="#b96a00"/>
      <stop offset="0.51" stopColor="#af8901"/>
      <stop offset="1" stopColor="#e1bc00"/>
    </linearGradient>
  </defs>
  <g id="Group_75" data-name="Group 75" transform="translate(-1078 -960)">
    <g id="Group_65" data-name="Group 65">
      <g id="Group_64" data-name="Group 64" transform="translate(47)">
        <g id="Group_63" data-name="Group 63">
          <path id="Path_6" data-name="Path 6" d="M-115,960v372.973H384.16" transform="translate(1160)" fill="none" stroke="#707070" stroke-width="1"/>
          <g id="Group_62" data-name="Group 62">
            <g id="Group_60" data-name="Group 60" transform="translate(0 4.696)" opacity="0.5">
              <g id="Group_37" data-name="Group 37" transform="translate(1057 1316.854)">
                <path id="Path_7" data-name="Path 7" d="M-103.052,1324.437v15.854" transform="translate(103.052 -1320.94)" fill="none" stroke="#707070" stroke-width="1"/>
                <path id="Path_8" data-name="Path 8" d="M-103.052,1324.437v22.847" transform="translate(110.052 -1324.437)" fill="none" stroke="#707070" stroke-width="1"/>
              </g>
              <g id="Group_55" data-name="Group 55" transform="translate(1442 1316.854)">
                <path id="Path_7-2" data-name="Path 7" d="M-103.052,1324.437v15.854" transform="translate(103.052 -1320.94)" fill="none" stroke="#707070" stroke-width="1"/>
                <path id="Path_8-2" data-name="Path 8" d="M-103.052,1324.437v22.847" transform="translate(110.052 -1324.437)" fill="none" stroke="#707070" stroke-width="1"/>
              </g>
              <g id="Group_38" data-name="Group 38" transform="translate(1078 1316.854)">
                <path id="Path_7-3" data-name="Path 7" d="M-103.052,1324.437v15.854" transform="translate(103.052 -1320.94)" fill="none" stroke="#707070" stroke-width="1"/>
                <path id="Path_8-3" data-name="Path 8" d="M-103.052,1324.437v22.847" transform="translate(110.052 -1324.437)" fill="none" stroke="#707070" stroke-width="1"/>
              </g>
              <g id="Group_56" data-name="Group 56" transform="translate(1463 1316.854)">
                <path id="Path_7-4" data-name="Path 7" d="M-103.052,1324.437v15.854" transform="translate(103.052 -1320.94)" fill="none" stroke="#707070" stroke-width="1"/>
                <path id="Path_8-4" data-name="Path 8" d="M-103.052,1324.437v22.847" transform="translate(110.052 -1324.437)" fill="none" stroke="#707070" stroke-width="1"/>
              </g>
              <g id="Group_39" data-name="Group 39" transform="translate(1100 1316.854)">
                <path id="Path_7-5" data-name="Path 7" d="M-103.052,1324.437v15.854" transform="translate(103.052 -1320.94)" fill="none" stroke="#707070" stroke-width="1"/>
                <path id="Path_8-5" data-name="Path 8" d="M-103.052,1324.437v22.847" transform="translate(110.052 -1324.437)" fill="none" stroke="#707070" stroke-width="1"/>
              </g>
              <g id="Group_57" data-name="Group 57" transform="translate(1485 1316.854)">
                <path id="Path_7-6" data-name="Path 7" d="M-103.052,1324.437v15.854" transform="translate(103.052 -1320.94)" fill="none" stroke="#707070" stroke-width="1"/>
                <path id="Path_8-6" data-name="Path 8" d="M-103.052,1324.437v22.847" transform="translate(110.052 -1324.437)" fill="none" stroke="#707070" stroke-width="1"/>
              </g>
              <g id="Group_40" data-name="Group 40" transform="translate(1121 1316.854)">
                <path id="Path_7-7" data-name="Path 7" d="M-103.052,1324.437v15.854" transform="translate(103.052 -1320.94)" fill="none" stroke="#707070" stroke-width="1"/>
                <path id="Path_8-7" data-name="Path 8" d="M-103.052,1324.437v22.847" transform="translate(110.052 -1324.437)" fill="none" stroke="#707070" stroke-width="1"/>
              </g>
              <g id="Group_58" data-name="Group 58" transform="translate(1506 1316.854)">
                <path id="Path_7-8" data-name="Path 7" d="M-103.052,1324.437v15.854" transform="translate(103.052 -1320.94)" fill="none" stroke="#707070" stroke-width="1"/>
                <path id="Path_8-8" data-name="Path 8" d="M-103.052,1324.437v22.847" transform="translate(110.052 -1324.437)" fill="none" stroke="#707070" stroke-width="1"/>
              </g>
              <g id="Group_41" data-name="Group 41" transform="translate(1143 1316.854)">
                <path id="Path_7-9" data-name="Path 7" d="M-103.052,1324.437v15.854" transform="translate(103.052 -1320.94)" fill="none" stroke="#707070" stroke-width="1"/>
                <path id="Path_8-9" data-name="Path 8" d="M-103.052,1324.437v22.847" transform="translate(110.052 -1324.437)" fill="none" stroke="#707070" stroke-width="1"/>
              </g>
              <g id="Group_59" data-name="Group 59" transform="translate(1528 1316.854)">
                <path id="Path_7-10" data-name="Path 7" d="M-103.052,1324.437v15.854" transform="translate(103.052 -1320.94)" fill="none" stroke="#707070" stroke-width="1"/>
                <path id="Path_8-10" data-name="Path 8" d="M-103.052,1324.437v22.847" transform="translate(110.052 -1324.437)" fill="none" stroke="#707070" stroke-width="1"/>
              </g>
              <g id="Group_42" data-name="Group 42" transform="translate(1164 1316.854)">
                <path id="Path_7-11" data-name="Path 7" d="M-103.052,1324.437v15.854" transform="translate(103.052 -1320.94)" fill="none" stroke="#707070" stroke-width="1"/>
                <path id="Path_8-11" data-name="Path 8" d="M-103.052,1324.437v22.847" transform="translate(110.052 -1324.437)" fill="none" stroke="#707070" stroke-width="1"/>
              </g>
              <g id="Group_43" data-name="Group 43" transform="translate(1185 1316.854)">
                <path id="Path_7-12" data-name="Path 7" d="M-103.052,1324.437v15.854" transform="translate(103.052 -1320.94)" fill="none" stroke="#707070" stroke-width="1"/>
                <path id="Path_8-12" data-name="Path 8" d="M-103.052,1324.437v22.847" transform="translate(110.052 -1324.437)" fill="none" stroke="#707070" stroke-width="1"/>
              </g>
              <g id="Group_44" data-name="Group 44" transform="translate(1207 1316.854)">
                <path id="Path_7-13" data-name="Path 7" d="M-103.052,1324.437v15.854" transform="translate(103.052 -1320.94)" fill="none" stroke="#707070" stroke-width="1"/>
                <path id="Path_8-13" data-name="Path 8" d="M-103.052,1324.437v22.847" transform="translate(110.052 -1324.437)" fill="none" stroke="#707070" stroke-width="1"/>
              </g>
              <g id="Group_45" data-name="Group 45" transform="translate(1228 1316.854)">
                <path id="Path_7-14" data-name="Path 7" d="M-103.052,1324.437v15.854" transform="translate(103.052 -1320.94)" fill="none" stroke="#707070" stroke-width="1"/>
                <path id="Path_8-14" data-name="Path 8" d="M-103.052,1324.437v22.847" transform="translate(110.052 -1324.437)" fill="none" stroke="#707070" stroke-width="1"/>
              </g>
              <g id="Group_46" data-name="Group 46" transform="translate(1250 1316.854)">
                <path id="Path_7-15" data-name="Path 7" d="M-103.052,1324.437v15.854" transform="translate(103.052 -1320.94)" fill="none" stroke="#707070" stroke-width="1"/>
                <path id="Path_8-15" data-name="Path 8" d="M-103.052,1324.437v22.847" transform="translate(110.052 -1324.437)" fill="none" stroke="#707070" stroke-width="1"/>
              </g>
              <g id="Group_47" data-name="Group 47" transform="translate(1271 1316.854)">
                <path id="Path_7-16" data-name="Path 7" d="M-103.052,1324.437v15.854" transform="translate(103.052 -1320.94)" fill="none" stroke="#707070" stroke-width="1"/>
                <path id="Path_8-16" data-name="Path 8" d="M-103.052,1324.437v22.847" transform="translate(110.052 -1324.437)" fill="none" stroke="#707070" stroke-width="1"/>
              </g>
              <g id="Group_48" data-name="Group 48" transform="translate(1292 1316.854)">
                <path id="Path_7-17" data-name="Path 7" d="M-103.052,1324.437v15.854" transform="translate(103.052 -1320.94)" fill="none" stroke="#707070" stroke-width="1"/>
                <path id="Path_8-17" data-name="Path 8" d="M-103.052,1324.437v22.847" transform="translate(110.052 -1324.437)" fill="none" stroke="#707070" stroke-width="1"/>
              </g>
              <g id="Group_49" data-name="Group 49" transform="translate(1314 1316.854)">
                <path id="Path_7-18" data-name="Path 7" d="M-103.052,1324.437v15.854" transform="translate(103.052 -1320.94)" fill="none" stroke="#707070" stroke-width="1"/>
                <path id="Path_8-18" data-name="Path 8" d="M-103.052,1324.437v22.847" transform="translate(110.052 -1324.437)" fill="none" stroke="#707070" stroke-width="1"/>
              </g>
              <g id="Group_50" data-name="Group 50" transform="translate(1335 1316.854)">
                <path id="Path_7-19" data-name="Path 7" d="M-103.052,1324.437v15.854" transform="translate(103.052 -1320.94)" fill="none" stroke="#707070" stroke-width="1"/>
                <path id="Path_8-19" data-name="Path 8" d="M-103.052,1324.437v22.847" transform="translate(110.052 -1324.437)" fill="none" stroke="#707070" stroke-width="1"/>
              </g>
              <g id="Group_51" data-name="Group 51" transform="translate(1357 1316.854)">
                <path id="Path_7-20" data-name="Path 7" d="M-103.052,1324.437v15.854" transform="translate(103.052 -1320.94)" fill="none" stroke="#707070" stroke-width="1"/>
                <path id="Path_8-20" data-name="Path 8" d="M-103.052,1324.437v22.847" transform="translate(110.052 -1324.437)" fill="none" stroke="#707070" stroke-width="1"/>
              </g>
              <g id="Group_52" data-name="Group 52" transform="translate(1378 1316.854)">
                <path id="Path_7-21" data-name="Path 7" d="M-103.052,1324.437v15.854" transform="translate(103.052 -1320.94)" fill="none" stroke="#707070" stroke-width="1"/>
                <path id="Path_8-21" data-name="Path 8" d="M-103.052,1324.437v22.847" transform="translate(110.052 -1324.437)" fill="none" stroke="#707070" stroke-width="1"/>
              </g>
              <g id="Group_53" data-name="Group 53" transform="translate(1399 1316.854)">
                <path id="Path_7-22" data-name="Path 7" d="M-103.052,1324.437v15.854" transform="translate(103.052 -1320.94)" fill="none" stroke="#707070" stroke-width="1"/>
                <path id="Path_8-22" data-name="Path 8" d="M-103.052,1324.437v22.847" transform="translate(110.052 -1324.437)" fill="none" stroke="#707070" stroke-width="1"/>
              </g>
              <g id="Group_54" data-name="Group 54" transform="translate(1421 1316.854)">
                <path id="Path_7-23" data-name="Path 7" d="M-103.052,1324.437v15.854" transform="translate(103.052 -1320.94)" fill="none" stroke="#707070" stroke-width="1"/>
                <path id="Path_8-23" data-name="Path 8" d="M-103.052,1324.437v22.847" transform="translate(110.052 -1324.437)" fill="none" stroke="#707070" stroke-width="1"/>
              </g>
            </g>
            <g id="Group_61" data-name="Group 61" transform="translate(2375.854 -218.146) rotate(90)" opacity="0.5">
              <g id="Group_55-2" data-name="Group 55" transform="translate(1442 1316.854)">
                <path id="Path_7-24" data-name="Path 7" d="M-103.052,1324.437v11.615" transform="translate(103.052 -1316.244)" fill="none" stroke="#707070" stroke-width="1"/>
                <path id="Path_8-24" data-name="Path 8" d="M-103.052,1324.437v28" transform="translate(110.052 -1324.437)" fill="none" stroke="#707070" stroke-width="1"/>
              </g>
              <g id="Group_56-2" data-name="Group 56" transform="translate(1463 1316.854)">
                <path id="Path_7-25" data-name="Path 7" d="M-103.052,1324.437v11.615" transform="translate(103.052 -1316.244)" fill="none" stroke="#707070" stroke-width="1"/>
                <path id="Path_8-25" data-name="Path 8" d="M-103.052,1324.437v28" transform="translate(110.052 -1324.437)" fill="none" stroke="#707070" stroke-width="1"/>
              </g>
              <g id="Group_57-2" data-name="Group 57" transform="translate(1485 1316.854)">
                <path id="Path_7-26" data-name="Path 7" d="M-103.052,1324.437v11.615" transform="translate(103.052 -1316.244)" fill="none" stroke="#707070" stroke-width="1"/>
                <path id="Path_8-26" data-name="Path 8" d="M-103.052,1324.437v28" transform="translate(110.052 -1324.437)" fill="none" stroke="#707070" stroke-width="1"/>
              </g>
              <g id="Group_58-2" data-name="Group 58" transform="translate(1506 1316.854)">
                <path id="Path_7-27" data-name="Path 7" d="M-103.052,1324.437v11.615" transform="translate(103.052 -1316.244)" fill="none" stroke="#707070" stroke-width="1"/>
                <path id="Path_8-27" data-name="Path 8" d="M-103.052,1324.437v28" transform="translate(110.052 -1324.437)" fill="none" stroke="#707070" stroke-width="1"/>
              </g>
              <g id="Group_59-2" data-name="Group 59" transform="translate(1528 1316.854)">
                <path id="Path_7-28" data-name="Path 7" d="M-103.052,1324.437v11.615" transform="translate(103.052 -1316.244)" fill="none" stroke="#707070" stroke-width="1"/>
                <path id="Path_8-28" data-name="Path 8" d="M-103.052,1324.437v28" transform="translate(110.052 -1324.437)" fill="none" stroke="#707070" stroke-width="1"/>
              </g>
              <g id="Group_43-2" data-name="Group 43" transform="translate(1185 1316.854)">
                <path id="Path_7-29" data-name="Path 7" d="M-103.052,1324.437v11.615" transform="translate(103.052 -1316.244)" fill="none" stroke="#707070" stroke-width="1"/>
                <path id="Path_8-29" data-name="Path 8" d="M-103.052,1324.437v28" transform="translate(110.052 -1324.437)" fill="none" stroke="#707070" stroke-width="1"/>
              </g>
              <g id="Group_44-2" data-name="Group 44" transform="translate(1207 1316.854)">
                <path id="Path_7-30" data-name="Path 7" d="M-103.052,1324.437v11.615" transform="translate(103.052 -1316.244)" fill="none" stroke="#707070" stroke-width="1"/>
                <path id="Path_8-30" data-name="Path 8" d="M-103.052,1324.437v28" transform="translate(110.052 -1324.437)" fill="none" stroke="#707070" stroke-width="1"/>
              </g>
              <g id="Group_45-2" data-name="Group 45" transform="translate(1228 1316.854)">
                <path id="Path_7-31" data-name="Path 7" d="M-103.052,1324.437v11.615" transform="translate(103.052 -1316.244)" fill="none" stroke="#707070" stroke-width="1"/>
                <path id="Path_8-31" data-name="Path 8" d="M-103.052,1324.437v28" transform="translate(110.052 -1324.437)" fill="none" stroke="#707070" stroke-width="1"/>
              </g>
              <g id="Group_46-2" data-name="Group 46" transform="translate(1250 1316.854)">
                <path id="Path_7-32" data-name="Path 7" d="M-103.052,1324.437v11.615" transform="translate(103.052 -1316.244)" fill="none" stroke="#707070" stroke-width="1"/>
                <path id="Path_8-32" data-name="Path 8" d="M-103.052,1324.437v28" transform="translate(110.052 -1324.437)" fill="none" stroke="#707070" stroke-width="1"/>
              </g>
              <g id="Group_47-2" data-name="Group 47" transform="translate(1271 1316.854)">
                <path id="Path_7-33" data-name="Path 7" d="M-103.052,1324.437v11.615" transform="translate(103.052 -1316.244)" fill="none" stroke="#707070" stroke-width="1"/>
                <path id="Path_8-33" data-name="Path 8" d="M-103.052,1324.437v28" transform="translate(110.052 -1324.437)" fill="none" stroke="#707070" stroke-width="1"/>
              </g>
              <g id="Group_48-2" data-name="Group 48" transform="translate(1292 1316.854)">
                <path id="Path_7-34" data-name="Path 7" d="M-103.052,1324.437v11.615" transform="translate(103.052 -1316.244)" fill="none" stroke="#707070" stroke-width="1"/>
                <path id="Path_8-34" data-name="Path 8" d="M-103.052,1324.437v28" transform="translate(110.052 -1324.437)" fill="none" stroke="#707070" stroke-width="1"/>
              </g>
              <g id="Group_49-2" data-name="Group 49" transform="translate(1314 1316.854)">
                <path id="Path_7-35" data-name="Path 7" d="M-103.052,1324.437v11.615" transform="translate(103.052 -1316.244)" fill="none" stroke="#707070" stroke-width="1"/>
                <path id="Path_8-35" data-name="Path 8" d="M-103.052,1324.437v28" transform="translate(110.052 -1324.437)" fill="none" stroke="#707070" stroke-width="1"/>
              </g>
              <g id="Group_50-2" data-name="Group 50" transform="translate(1335 1316.854)">
                <path id="Path_7-36" data-name="Path 7" d="M-103.052,1324.437v11.615" transform="translate(103.052 -1316.244)" fill="none" stroke="#707070" stroke-width="1"/>
                <path id="Path_8-36" data-name="Path 8" d="M-103.052,1324.437v28" transform="translate(110.052 -1324.437)" fill="none" stroke="#707070" stroke-width="1"/>
              </g>
              <g id="Group_51-2" data-name="Group 51" transform="translate(1357 1316.854)">
                <path id="Path_7-37" data-name="Path 7" d="M-103.052,1324.437v11.615" transform="translate(103.052 -1316.244)" fill="none" stroke="#707070" stroke-width="1"/>
                <path id="Path_8-37" data-name="Path 8" d="M-103.052,1324.437v28" transform="translate(110.052 -1324.437)" fill="none" stroke="#707070" stroke-width="1"/>
              </g>
              <g id="Group_52-2" data-name="Group 52" transform="translate(1378 1316.854)">
                <path id="Path_7-38" data-name="Path 7" d="M-103.052,1324.437v11.615" transform="translate(103.052 -1316.244)" fill="none" stroke="#707070" stroke-width="1"/>
                <path id="Path_8-38" data-name="Path 8" d="M-103.052,1324.437v28" transform="translate(110.052 -1324.437)" fill="none" stroke="#707070" stroke-width="1"/>
              </g>
              <g id="Group_53-2" data-name="Group 53" transform="translate(1399 1316.854)">
                <path id="Path_7-39" data-name="Path 7" d="M-103.052,1324.437v11.615" transform="translate(103.052 -1316.244)" fill="none" stroke="#707070" stroke-width="1"/>
                <path id="Path_8-39" data-name="Path 8" d="M-103.052,1324.437v28" transform="translate(110.052 -1324.437)" fill="none" stroke="#707070" stroke-width="1"/>
              </g>
              <g id="Group_54-2" data-name="Group 54" transform="translate(1421 1316.854)">
                <path id="Path_7-40" data-name="Path 7" d="M-103.052,1324.437v11.615" transform="translate(103.052 -1316.244)" fill="none" stroke="#707070" stroke-width="1"/>
                <path id="Path_8-40" data-name="Path 8" d="M-103.052,1324.437v28" transform="translate(110.052 -1324.437)" fill="none" stroke="#707070" stroke-width="1"/>
              </g>
            </g>
          </g>
        </g>
        <path id="Path_9" data-name="Path 9" d="M-54,1275.471l100.64-100.64,53.1,53.1L206,1121.673l32.183,32.183,56.133-56.133L360,1163.408l21.139-21.139" transform="translate(1160)" fill="none" stroke="#dfdfdf" stroke-linecap="round" stroke-width="2"/>
        <circle id="Ellipse_1" data-name="Ellipse 1" cx="8" cy="8" r="8" transform="translate(1098 1267)"/>
        <circle id="Ellipse_2" data-name="Ellipse 2" cx="8" cy="8" r="8" transform="translate(1197 1167)"/>
        <circle id="Ellipse_3" data-name="Ellipse 3" cx="8" cy="8" r="8" transform="translate(1390 1147)"/>
      </g>
    </g>
    <path id="Polygon_5" data-name="Polygon 5" d="M8,0l8,14H0Z" transform="translate(1588.268 1130.013) rotate(44)" fill="url(#linear-gradient)"/>
  </g>
</svg>
